<?xml version="1.0" encoding="utf-8"?>
<!-- Generator: Adobe Illustrator 23.0.2, SVG Export Plug-In . SVG Version: 6.00 Build 0)  -->
<svg version="1.1" id="Capa_1" xmlns="http://www.w3.org/2000/svg" xmlns:xlink="http://www.w3.org/1999/xlink" x="0px" y="0px"
	 viewBox="0 0 512 512" style="enable-background:new 0 0 512 512;" xml:space="preserve">
<g>
	<path d="M238.2,76.5H5.6C2.5,76.5,0,79,0,82.1v214.8c0,3.1,2.5,5.6,5.6,5.6s5.6-2.5,5.6-5.6V87.6h221.5v357.6H220v-75.4
		c0-3.1-2.5-5.6-5.6-5.6s-5.6,2.5-5.6,5.6v75.4h-174V111.4h174v236.2c0,3.1,2.5,5.6,5.6,5.6c3.1,0,5.6-2.5,5.6-5.6V105.8
		c0-3.1-2.5-5.6-5.6-5.6H29.3c-3.1,0-5.6,2.5-5.6,5.6v339.5H11.2V319.2c0-3.1-2.5-5.6-5.6-5.6S0,316.1,0,319.2v131.7
		c0,3.1,2.5,5.6,5.6,5.6h232.6c3.1,0,5.6-2.5,5.6-5.6V82.1C243.8,79,241.3,76.5,238.2,76.5L238.2,76.5z"/>
	<path d="M60.3,200.9c-3.1,0-5.6,2.5-5.6,5.6v53.3c0,3.1,2.5,5.6,5.6,5.6h123.2c3.1,0,5.6-2.5,5.6-5.6V136.1c0-3.1-2.5-5.6-5.6-5.6
		H60.3c-3.1,0-5.6,2.5-5.6,5.6v48.1c0,3.1,2.5,5.6,5.6,5.6c3.1,0,5.6-2.5,5.6-5.6v-42.5h112v112.6h-112v-47.8
		C65.9,203.4,63.4,200.9,60.3,200.9L60.3,200.9z"/>
	<path d="M54.7,420.6c0,3.1,2.5,5.6,5.6,5.6h123.2c3.1,0,5.6-2.5,5.6-5.6V296.9c0-3.1-2.5-5.6-5.6-5.6H60.3c-3.1,0-5.6,2.5-5.6,5.6
		L54.7,420.6z M65.9,302.4h112V415h-112L65.9,302.4z"/>
	<path d="M203.8,278.3c0-5.8-4.7-10.5-10.5-10.5c-3.8,0-7,2-8.9,5H171c-3.1,0-5.6,2.5-5.6,5.6c0,3.1,2.5,5.6,5.6,5.6h13.3
		c1.9,3,5.2,5,8.9,5C199,288.9,203.8,284.1,203.8,278.3z"/>
</g>
<g>
	<path d="M453.7,409c2,0,3.6-1.6,3.6-3.6v-17.5c0-2-1.6-3.6-3.6-3.6H329.8c-2,0-3.6,1.6-3.6,3.6v17.5c0,2,1.6,3.6,3.6,3.6H453.7z
		 M408.7,401.8h-13.3v-10.3h13.3V401.8z M415.9,391.5h13.3v10.3h-13.3V391.5z M388.2,401.8h-13.3v-10.3h13.3V401.8z M367.6,401.8
		h-13.3v-10.3h13.3V401.8z M450.1,401.8h-13.7v-10.3h13.7V401.8z M333.4,391.5h13.7v10.3h-13.7V391.5z"/>
	<path d="M507.5,449H497V311.7h1.5c2,0,3.6-1.6,3.6-3.6s-1.6-3.6-3.6-3.6H497v-12.8h1.5c2,0,3.6-1.6,3.6-3.6c0-2-1.6-3.6-3.6-3.6
		c-5.9,0-39.1,0-45.9,0c-2,0-3.6,1.6-3.6,3.6c0,2,1.6,3.6,3.6,3.6h1.5v12.8h-1.5c-2,0-3.6,1.6-3.6,3.6s1.6,3.6,3.6,3.6h1.5v15.7
		l-24.9-24.9c-2.3-2.3-5.3-3.5-8.5-3.5h-15.9v-28.9h2.1c2,0,3.6-1.6,3.6-3.6c0-2-1.6-3.6-3.6-3.6h-2.1v-14h2.1c2,0,3.6-1.6,3.6-3.6
		c0-2-1.6-3.6-3.6-3.6c-9.1,0-58.1,0-68.3,0c-2,0-3.6,1.6-3.6,3.6c0,2,1.6,3.6,3.6,3.6h2.1v14h-2.1c-2,0-3.6,1.6-3.6,3.6
		s1.6,3.6,3.6,3.6h2.1v16.2c0,2,1.6,3.6,3.6,3.6c2,0,3.6-1.6,3.6-3.6v-16.2h49.6V368h-49.6v-67.2c0-2-1.6-3.6-3.6-3.6
		c-2,0-3.6,1.6-3.6,3.6V368H312c-3.6,0-6.5,2.9-6.5,6.5v23.7h-7.1c-7.4,0-14.4,3.3-19.2,9c-1.3,1.5-1.1,3.8,0.4,5.1
		c1.5,1.3,3.8,1.1,5.1-0.4c3.4-4.1,8.4-6.4,13.6-6.4h7.1v9.6h-7.1c-4.5,0-8.1,3.6-8.1,8.1V449h-9.6v-25.7c0-2-1.6-3.6-3.6-3.6
		c-2,0-3.6,1.6-3.6,3.6V449h-5.3c-2,0-3.6,1.6-3.6,3.6s1.6,3.6,3.6,3.6h239.4c2,0,3.6-1.6,3.6-3.6S509.4,449,507.5,449L507.5,449z
		 M348.1,262.9v-14h49.6v14L348.1,262.9L348.1,262.9z M461.4,291.7h28.4v12.8h-28.4V291.7z M420.8,306.3c1.3,0,2.5,0.5,3.4,1.4
		l30,30v13.6l-34.3-34.3c-0.7-0.7-1.6-1.1-2.6-1.1h-12.4v-9.6L420.8,306.3L420.8,306.3z M297.4,423.2c0-0.5,0.4-0.9,0.9-0.9h7.1V449
		h-8V423.2z M312.7,375.3h109.6c2,0,3.6-1.6,3.6-3.6c0-2-1.6-3.6-3.6-3.6h-17.3v-44.9h10.9l38.4,38.4v6.6h-17.5
		c-2,0-3.6,1.6-3.6,3.6c0,2,1.6,3.6,3.6,3.6h34.1V449H422v-25.1c0-2-1.6-3.6-3.6-3.6h-53.3c-2,0-3.6,1.6-3.6,3.6V449h-48.8
		C312.7,445.8,312.7,378.5,312.7,375.3L312.7,375.3z M368.7,449v-21.5h46.1V449H368.7z M478.1,449v-74.4c0-3.6-2.9-6.5-6.5-6.5
		h-10.1c0-11.2,0-44.7,0-56.3h28.4V449H478.1z"/>
</g>
</svg>
