<?xml version="1.0" encoding="utf-8"?>
<!-- Generator: Adobe Illustrator 24.0.0, SVG Export Plug-In . SVG Version: 6.00 Build 0)  -->
<svg version="1.1" id="Слой_1" xmlns="http://www.w3.org/2000/svg" xmlns:xlink="http://www.w3.org/1999/xlink" x="0px" y="0px"
	 viewBox="0 0 202 50" style="enable-background:new 0 0 202 50;" xml:space="preserve">
<style type="text/css">
	.st0{fill:#FFFFFF;}
	.st1{fill:#00A99D;}
</style>
<g>
	<g>
		<path class="st0" d="M36.74,38.87v9.11c0,0.45-0.16,0.83-0.47,1.14c-0.31,0.31-0.69,0.47-1.14,0.47H1.72
			c-0.49,0-0.88-0.16-1.17-0.47c-0.29-0.31-0.44-0.69-0.44-1.14V2.18c0-0.45,0.14-0.83,0.44-1.14c0.29-0.31,0.68-0.47,1.17-0.47
			h10.04c0.45,0,0.83,0.16,1.14,0.47c0.31,0.31,0.47,0.69,0.47,1.14v33.48c0,0.45,0.14,0.83,0.43,1.14
			c0.29,0.31,0.68,0.47,1.17,0.47h20.15c0.45,0,0.83,0.16,1.14,0.47C36.58,38.04,36.74,38.42,36.74,38.87z"/>
		<path class="st0" d="M53.55,49.58H43.49c-0.49,0-0.88-0.16-1.17-0.47c-0.29-0.31-0.43-0.69-0.43-1.14V2.24
			c0-0.45,0.14-0.83,0.43-1.14c0.29-0.31,0.68-0.47,1.17-0.47h10.06c0.44,0,0.82,0.16,1.13,0.47s0.47,0.69,0.47,1.14v45.73
			c0,0.45-0.16,0.83-0.47,1.14C54.38,49.43,54,49.58,53.55,49.58z"/>
		<path class="st0" d="M118.76,2.24v45.73c0,0.45-0.16,0.83-0.47,1.14c-0.31,0.31-0.69,0.47-1.13,0.47H107.1
			c-0.44,0-0.82-0.16-1.13-0.47c-0.31-0.31-0.47-0.69-0.47-1.14V26.41c0-0.45-0.2-0.69-0.6-0.74c-0.4-0.04-0.74,0.11-1.01,0.47
			L92.62,44.29c-0.22,0.36-0.58,0.54-1.07,0.54s-0.87-0.18-1.14-0.54L79.13,26.15c-0.22-0.36-0.54-0.51-0.94-0.47
			c-0.4,0.04-0.6,0.29-0.6,0.74v21.56c0,0.45-0.16,0.83-0.47,1.14c-0.31,0.31-0.69,0.47-1.13,0.47H65.92
			c-0.44,0-0.82-0.16-1.13-0.47c-0.31-0.31-0.47-0.69-0.47-1.14V2.24c0-0.45,0.16-0.83,0.47-1.14c0.31-0.31,0.69-0.47,1.13-0.47
			h9.33c0.44,0,0.91,0.13,1.4,0.4c0.49,0.27,0.84,0.58,1.07,0.94L90.6,20.86c0.27,0.36,0.58,0.54,0.94,0.54
			c0.36,0,0.65-0.18,0.87-0.54L105.3,1.98c0.27-0.36,0.64-0.67,1.13-0.94c0.49-0.27,0.96-0.4,1.4-0.4h9.33
			c0.44,0,0.82,0.16,1.13,0.47C118.61,1.42,118.76,1.8,118.76,2.24z"/>
		<path class="st0" d="M141.6,49.58h-10.06c-0.49,0-0.88-0.16-1.17-0.47c-0.29-0.31-0.43-0.69-0.43-1.14V2.24
			c0-0.45,0.14-0.83,0.43-1.14c0.29-0.31,0.68-0.47,1.17-0.47h10.06c0.44,0,0.82,0.16,1.13,0.47s0.47,0.69,0.47,1.14v45.73
			c0,0.45-0.16,0.83-0.47,1.14C142.42,49.43,142.05,49.58,141.6,49.58z"/>
	</g>
	<g>
		<g>
			<path class="st1" d="M148.42,11.13V2.03c0-0.45,0.16-0.83,0.47-1.14c0.31-0.31,0.69-0.47,1.14-0.47h33.41
				c0.49,0,0.88,0.16,1.17,0.47c0.29,0.31,0.44,0.69,0.44,1.14v45.8c0,0.45-0.14,0.83-0.44,1.14c-0.29,0.31-0.68,0.47-1.17,0.47
				H173.4c-0.45,0-0.83-0.16-1.14-0.47c-0.31-0.31-0.47-0.69-0.47-1.14V14.35c0-0.45-0.14-0.83-0.43-1.14
				c-0.29-0.31-0.68-0.47-1.17-0.47h-20.15c-0.45,0-0.83-0.16-1.14-0.47C148.58,11.96,148.42,11.58,148.42,11.13z"/>
		</g>
		<path class="st1" d="M200.2,12.76h-7.94c-0.93,0-1.69-0.76-1.69-1.69V2.15c0-0.93,0.76-1.69,1.69-1.69h7.94
			c0.93,0,1.69,0.76,1.69,1.69v8.92C201.89,12.01,201.13,12.76,200.2,12.76z"/>
	</g>
</g>
</svg>
