<?xml version="1.0" encoding="utf-8"?>
<!-- Generator: Adobe Illustrator 24.0.0, SVG Export Plug-In . SVG Version: 6.00 Build 0)  -->
<svg version="1.1" id="Слой_1" xmlns="http://www.w3.org/2000/svg" xmlns:xlink="http://www.w3.org/1999/xlink" x="0px" y="0px"
	 viewBox="0 0 512 512" style="enable-background:new 0 0 512 512;" xml:space="preserve">
<style type="text/css">
	.st0{fill:#828282;}
</style>
<path class="st0" d="M255.6,0C152.2,0,68,84.2,68,187.6c0,47.5,29.9,114.7,89,199.6c43.2,62.1,85.6,110.1,87.4,112.1l11.2,12.6
	l11.2-12.6c1.8-2,44.3-50.1,87.4-112.1c59.1-84.9,89-152.1,89-199.6C443.3,84.2,359.1,0,255.6,0z M329.9,369.9
	c-29.2,42-58.7,78.1-74.2,96.6c-15.5-18.4-44.9-54.4-74.1-96.3c-54.7-78.7-83.7-141.8-83.7-182.5c0-87,70.8-157.7,157.7-157.7
	c87,0,157.7,70.8,157.7,157.7C413.4,228.3,384.5,291.3,329.9,369.9z"/>
<path class="st0" d="M255.6,69.4c-61.1,0-110.7,49.7-110.7,110.7s49.7,110.8,110.7,110.8c61.1,0,110.8-49.7,110.8-110.8
	S316.7,69.4,255.6,69.4z M255.6,260.9c-44.6,0-80.8-36.3-80.8-80.8c0-44.6,36.3-80.8,80.8-80.8c44.6,0,80.8,36.3,80.8,80.8
	C336.5,224.7,300.2,260.9,255.6,260.9z"/>
</svg>
