<svg id="Layer_1" enable-background="new 0 0 511.74 511.74" height="512" viewBox="0 0 511.74 511.74" width="512" xmlns="http://www.w3.org/2000/svg"><g><path d="m486.471 119.8h-83.032c-8.699-14.793-24.776-24.75-43.144-24.75h-28.328l-56.156-34.091c-.722-.415-2.154-1.1-3.892-1.089h-224.634c-26.073 0-47.285 21.212-47.285 47.285v75.837c0 26.073 21.212 47.285 47.285 47.285h55.611l-3.846 40.592c-.391 4.124 2.636 7.783 6.76 8.174 4.118.384 7.783-2.635 8.174-6.759l3.979-42.004h62.321l9.215 117.58h-82.676l3.83-40.431c.391-4.124-2.636-7.783-6.76-8.174-4.108-.385-7.782 2.636-8.174 6.759l-3.964 41.85h-17.485c-17.682 0-32.067 14.385-32.067 32.067v59.438c0 6.893 5.607 12.5 12.5 12.5h186.606c6.893 0 12.5-5.607 12.5-12.5v-59.438c0-17.682-14.386-32.067-32.067-32.067h-17.195l-5.15-65.725h23.754c8.237 0 15.556-5.242 18.212-13.051l13.165-38.812h17.393c.96-.088 2.175-.061 3.892-1.089l56.156-34.091h28.328c18.371 0 34.45-9.96 43.148-24.757h83.028c13.934 0 25.27-11.336 25.27-25.27-.003-13.825-11.574-25.331-25.272-25.269zm-264.73 243.065c9.411 0 17.067 7.656 17.067 17.067v56.938h-181.606v-56.938c0-9.411 7.656-17.067 17.067-17.067zm5.418-98.6c-.585 1.72-2.196 2.875-4.009 2.875h-24.93l-2.888-36.86h43.354zm37.261-48.987h-217.135c-17.802 0-32.285-14.483-32.285-32.285v-75.837c0-17.803 14.483-32.286 32.285-32.286h217.135zm57.949-31.901-42.949 26.074v-128.754l42.949 26.073zm37.926-3.279h-22.926v-70.048h22.926c19.313 0 35.024 15.712 35.024 35.024s-15.712 35.024-35.024 35.024zm126.176-24.758h-77.215c.694-3.315 1.064-6.748 1.064-10.266 0-3.521-.37-6.956-1.065-10.273h77.217c5.553-.032 10.27 4.681 10.27 10.27-.002 5.662-4.608 10.269-10.271 10.269zm-442.674 15.304c0 8.662 7.047 15.708 15.709 15.708h160.407c8.662 0 15.709-7.047 15.709-15.708v-51.139c0-8.662-7.047-15.708-15.709-15.708h-97.375c-4.143 0-7.5 3.358-7.5 7.5s3.357 7.5 7.5 7.5h97.375c.391 0 .709.318.709.708v51.139c0 .391-.318.708-.709.708h-160.407c-.391 0-.709-.318-.709-.708v-51.139c0-.391.318-.708.709-.708h28.032c4.143 0 7.5-3.358 7.5-7.5s-3.357-7.5-7.5-7.5h-28.032c-8.662 0-15.709 7.047-15.709 15.708z"/></g></svg>